<svg xmlns="http://www.w3.org/2000/svg" viewBox="0 0 1024 1024"><defs><linearGradient id="g" gradientUnits="userSpaceOnUse" x1="0" y1="0" x2="675" y2="1218"><stop offset="0" stop-color="#122d23"/><stop offset="1" stop-color="#414d47"/></linearGradient></defs><circle cx="512" cy="512" r="512" fill="url(#g)"/><g transform="translate(120 193)"><path fill="#fff" d="M377 1c-15 5-27 14-33 27-4 7-4 24 0 32 19 37 77 37 96 0 4-8 4-25 0-32-11-22-38-33-63-27z M62 66c-15 4-28 13-33 25-6 12-5 30 3 39 7 9 17 16 28 20 10 2 33 1 37-2 1-1 2-1 3-1 3 0 15-10 20-17 21-29-4-66-44-66-5 0-12 1-14 2z M691 66c-32 11-44 41-27 64 5 7 17 17 20 17 1 0 2 0 3 1 4 3 27 4 37 2 11-4 21-11 28-20 8-9 9-27 3-39-10-21-40-33-64-25z M343 158c-24 6-46 19-57 36-1 2-3 4-3 4-1 1-8 14-10 20-5 16-6 24-6 58 0 27 0 28-2 31-11 15-27 13-47-7-7-8-12-14-25-33-33-49-52-64-88-70-50-8-93 21-104 68-1 9-2 300 0 303 2 4 6 8 9 10 4 2 760 2 764 0 3-2 7-6 9-10 2-3 1-294 0-303-11-47-54-76-104-68-36 6-55 21-88 70-13 19-18 25-25 33-20 20-36 22-47 7-2-3-2-4-2-31 0-25-1-42-3-48 0-1-1-5-2-7-10-32-41-58-76-62-4-1-5-1-7 1l-3 3 0 80c0 84 0 87 5 101 1 4 8 19 9 20 0 0 1 2 2 3 2 4 18 20 23 24 6 4 21 12 23 12 1 0 2 0 3 1 9 5 37 6 56 2 34-7 59-25 87-64 5-6 8-11 8-12 0 0 0-1 1-1 0 0 1-1 2-3 0-1 1-3 2-3 1-1 3-4 5-7 2-3 4-6 4-6 0 0 2-2 3-4 2-3 6-7 9-11 15-15 25-18 31-9 3 5 3 183 1 190-2 6-9 12-14 12-5 1-583 1-588 0-5 0-12-7-14-12-2-8-1-186 1-190 6-9 16-6 31 9 3 4 7 8 9 11 1 2 3 4 3 4 0 0 3 4 6 9 3 5 6 9 7 10 1 0 1 1 1 2 0 0 1 2 3 4 1 2 4 6 6 8 10 14 13 18 23 28 19 19 39 30 63 35 3 0 10 1 16 2 15 1 26 0 43-5 14-4 36-20 45-34 5-7 12-23 13-28 1-1 2-5 2-7 1-3 1-31 2-89l0-84-3-2c-2-2-6-2-12-1z"/></g></svg>
